<?xml version="1.0" encoding="UTF-8"?>
<svg xmlns="http://www.w3.org/2000/svg" viewBox="0 0 1024 1024" role="img" aria-labelledby="title desc">
  <title id="title">Pegasus flat green icon</title>
  <desc id="desc">White readable Pegasus mark on a flat green background sampled from the previous gradient.</desc>
  <rect width="1024" height="1024" fill="#1ED16F"/>
  <path d="M600 267.5 L598 267.5 L594.5 263 L593.5 241 L615.5 218 L634.5 192 L650.5 161 L657.5 133 L661 130.5 L667.5 151 L667.5 173 L660.5 197 L635.5 236 L620 251.5 L600 267.5 Z M605 295.5 L598.5 290 L600.5 274 L615 263.5 L646.5 231 L664.5 204 L678 176.5 L682.5 190 L682.5 207 L678.5 223 L670.5 239 L663.5 249 L643 269.5 L615 290.5 L605 295.5 Z M605 319.5 L600.5 317 L603.5 312 L603.5 303 L642 276.5 L670.5 248 L688 220.5 L691.5 227 L691.5 246 L688.5 257 L680.5 272 L648 298.5 L605 319.5 Z M715 337.5 L713.5 337 L714.5 329 L712 326.5 L709 327.5 L708.5 325 L715.5 314 L717.5 304 L723 299.5 L726 299.5 L751 287.5 L779 268.5 L807.5 240 L820 224.5 L821.5 227 L821.5 253 L819.5 261 L810.5 280 L802.5 291 L788 305.5 L768 318.5 L746 328.5 L715 337.5 Z M537 894.5 L520 894.5 L517.5 891 L517.5 883 L525.5 862 L540.5 850 L557.5 819 L563.5 800 L563.5 788 L557.5 774 L523 740.5 L518.5 745 L517.5 767 L525.5 781 L525.5 790 L523.5 795 L482.5 836 L477.5 845 L476.5 855 L472 859.5 L465 858.5 L458.5 864 L454.5 883 L450 887.5 L444 890.5 L441 894.5 L419 894.5 L416.5 891 L416.5 885 L424.5 867 L452.5 840 L485.5 798 L489.5 788 L489.5 775 L482.5 757 L468.5 737 L460.5 716 L461.5 692 L467.5 675 L473.5 670 L472.5 668 L467 664.5 L437 656.5 L412 644.5 L399 635.5 L373.5 610 L365.5 599 L355.5 578 L377 580.5 L393.5 563 L392 561.5 L389 562.5 L379 573.5 L375 575.5 L367 574.5 L330 555.5 L289 518.5 L278.5 528 L275.5 534 L270.5 552 L273.5 568 L265.5 575 L265.5 581 L280.5 595 L282.5 600 L282.5 615 L274 634.5 L250.5 610 L248.5 606 L248.5 585 L241.5 575 L241.5 563 L255.5 530 L256.5 507 L258.5 504 L276 484.5 L286 484.5 L310 497.5 L344 505.5 L358 513.5 L367 522.5 L368.5 521 L367.5 519 L358 507.5 L342.5 500 L342.5 480 L337.5 480 L335.5 486 L336.5 496 L332 498.5 L327 497.5 L322.5 494 L321 479.5 L314.5 480 L316.5 492 L313 493.5 L308 491.5 L297 479.5 L280 479.5 L279.5 447 L269 437.5 L250 439.5 L243 444.5 L234 441.5 L228.5 448 L228.5 458 L224 465.5 L210 472.5 L196 474.5 L193.5 472 L194.5 461 L199.5 449 L211.5 437 L218 424.5 L242 421.5 L274 407.5 L286 411.5 L294.5 417 L303.5 433 L319.5 449 L318.5 454 L322 457.5 L324.5 456 L326.5 449 L337.5 430 L343.5 429 L347.5 417 L356.5 406 L366 397.5 L370 400.5 L373 399.5 L395.5 374 L405.5 357 L409.5 342 L408.5 340 L405 338.5 L398 342.5 L389 342.5 L382 341.5 L372 335.5 L369 337.5 L355 332.5 L341 332.5 L334 337.5 L324 334.5 L321.5 330 L326.5 325 L326.5 320 L322 318.5 L316 321.5 L313.5 319 L323 295.5 L346 291.5 L388 275.5 L409 274.5 L428 282.5 L445.5 298 L455.5 316 L460.5 340 L463 342.5 L465.5 340 L465.5 330 L456.5 305 L452.5 298 L432 277.5 L427.5 276 L434.5 266 L436.5 252 L435 250.5 L431 252.5 L430.5 251 L443 238.5 L445.5 241 L443.5 259 L455 262.5 L466 272.5 L479 279.5 L489.5 281 L484 284.5 L475 284.5 L473.5 286 L484.5 297 L494.5 319 L501 325.5 L512.5 330 L508 332.5 L496 332.5 L493 330.5 L490.5 333 L498.5 341 L504.5 359 L512.5 367 L503 368.5 L494 362.5 L491.5 365 L497.5 383 L508.5 392 L496 393.5 L491 390.5 L488.5 393 L492.5 403 L500.5 411 L491 410.5 L483 405.5 L480.5 408 L479.5 430 L482.5 436 L489.5 442 L481 443.5 L474 438.5 L471.5 441 L472.5 445 L482.5 455 L473 455.5 L470.5 458 L477 463.5 L498.5 473 L494 475.5 L445 474.5 L445 479.5 L465 481.5 L499 480.5 L525 473.5 L541 465.5 L551 458.5 L578.5 430 L596.5 396 L601.5 377 L609.5 359 L628 338.5 L646 328.5 L693 311.5 L708 302.5 L711.5 303 L707.5 317 L695 331.5 L672 343.5 L645 352.5 L638.5 357 L641 359.5 L644 358.5 L677 346.5 L707.5 333 L703.5 348 L688 364.5 L662 374.5 L659.5 377 L664 379.5 L700.5 367 L698.5 377 L693.5 386 L686 393.5 L675 399.5 L665 401.5 L663 403.5 L661 402.5 L659 404.5 L656 403.5 L653.5 406 L657 408.5 L664 405.5 L668 406.5 L691.5 402 L685.5 414 L675 424.5 L664 428.5 L661.5 431 L664 433.5 L675 433.5 L674.5 439 L662 451.5 L647 457.5 L639 457.5 L636.5 460 L639 462.5 L653 463.5 L650.5 469 L646 473.5 L634 479.5 L624 480.5 L608 478.5 L591 467.5 L587.5 470 L591 476.5 L594 474.5 L603 480.5 L607 480.5 L625 487.5 L627.5 489 L626 490.5 L614 498.5 L602 499.5 L585 493.5 L575 482.5 L570.5 488 L573 490.5 L589 501.5 L601.5 507 L592 513.5 L586 514.5 L573 512.5 L559.5 502 L562.5 497 L563.5 490 L559 486.5 L556.5 489 L556.5 496 L545 495.5 L542.5 498 L541 504.5 L533 504.5 L527 501.5 L520.5 512 L523 514.5 L529 512.5 L546 530.5 L553.5 535 L550 538.5 L546 539.5 L537 539.5 L528 534.5 L521.5 528 L516.5 519 L516.5 515 L519.5 512 L517 509.5 L508 508.5 L503 503.5 L499.5 506 L497 511.5 L489 511.5 L481 504.5 L475 512.5 L470 512.5 L460 504.5 L455.5 510 L454.5 512 L457 514.5 L462 511.5 L468.5 518 L471.5 541 L467 542.5 L462 538.5 L459.5 541 L467.5 548 L470 552.5 L478 543.5 L489 551.5 L501 552.5 L506 546.5 L512 549.5 L514 548.5 L522.5 554 L527.5 577 L539.5 601 L539 605.5 L534 605.5 L518 598.5 L509 589.5 L502 589.5 L502 595.5 L493 593.5 L478.5 581 L470 564.5 L467.5 567 L467.5 576 L466 576.5 L449.5 561 L448.5 549 L447 547.5 L445.5 549 L445.5 555 L444 556.5 L441.5 554 L434.5 544 L430.5 534 L428.5 510 L435.5 490 L443.5 481 L443 479.5 L437 479.5 L434.5 482 L430.5 487 L424.5 502 L423.5 530 L427.5 544 L435.5 557 L445 566.5 L449 566.5 L464 581.5 L470 584.5 L475 583.5 L485 594.5 L494 599.5 L506 602.5 L510 596.5 L522 607.5 L530 609.5 L547 609.5 L548 604.5 L558 609.5 L584 610.5 L590 606.5 L597.5 611 L606.5 629 L609.5 642 L609.5 663 L605.5 678 L596.5 695 L584.5 708 L579.5 719 L579.5 750 L585.5 762 L597.5 774 L596.5 789 L580.5 816 L579.5 828 L575.5 831 L572.5 841 L572.5 853 L571 854.5 L565 853.5 L558.5 859 L554.5 865 L553.5 883 L549 887.5 L540 890.5 L537 894.5 Z M419 272.5 L409 269.5 L393.5 270 L396.5 257 L407 247.5 L423 245.5 L429.5 249 L422.5 257 L419 272.5 Z M514 470.5 L502 470.5 L492.5 466 L507.5 453 L502.5 445 L521.5 422 L532.5 393 L532.5 326 L538.5 300 L554.5 275 L587 245.5 L589.5 256 L587.5 263 L583.5 274 L574.5 285 L576 286.5 L591 271.5 L593.5 271 L594.5 283 L586.5 299 L596.5 298 L596.5 312 L592.5 320 L583.5 328 L586 330.5 L597.5 323 L597.5 334 L595.5 339 L586.5 348 L589 350.5 L596 346.5 L597.5 353 L595.5 359 L586.5 368 L589 370.5 L593 369.5 L594.5 371 L592.5 378 L583.5 387 L587.5 390 L587.5 396 L583.5 402 L576.5 407 L580.5 413 L573 422.5 L564.5 428 L568.5 431 L564.5 436 L557 443.5 L553 443.5 L550.5 446 L552.5 448 L551 449.5 L536 459.5 L532 455.5 L527 462.5 L514 470.5 Z M605 355.5 L603.5 355 L604.5 344 L602.5 341 L602.5 335 L605.5 325 L608 322.5 L643 305.5 L651 299.5 L656 298.5 L673 286.5 L692 267.5 L694.5 268 L694.5 284 L692.5 291 L679 311.5 L633 328.5 L625 333.5 L605 355.5 Z M709 375.5 L706.5 375 L707.5 363 L703 360.5 L702.5 358 L712 343.5 L743 336.5 L785 320.5 L803 310.5 L825 291.5 L826.5 292 L826.5 308 L823.5 319 L816.5 332 L799 349.5 L778 361.5 L760 367.5 L709 375.5 Z M452.5 437 L454.5 435 L452.5 433 L452.5 415 L465.5 372 L465.5 351 L463 348.5 L460.5 351 L459.5 375 L448.5 413 L448.5 434 L452.5 437 Z M756 409.5 L701 409.5 L695.5 407 L697.5 398 L692.5 394 L704 380.5 L770 372.5 L794 365.5 L818 351.5 L821.5 353 L818.5 369 L815.5 375 L809.5 385 L798 395.5 L785 402.5 L756 409.5 Z M531.5 454 L543.5 444 L542.5 437 L548.5 431 L547.5 424 L552.5 419 L550.5 414 L557.5 407 L555.5 397 L558.5 393 L558.5 385 L555 381.5 L550.5 386 L553.5 392 L548.5 399 L551.5 406 L545.5 412 L546.5 419 L541.5 424 L542.5 431 L534.5 439 L537.5 442 L536.5 445 L528.5 451 L531.5 454 Z M760 448.5 L725 448.5 L682 440.5 L683.5 432 L679.5 428 L692 414.5 L765 416.5 L808.5 407 L802.5 423 L783 441.5 L760 448.5 Z M747 486.5 L722 486.5 L695 480.5 L663 468.5 L662.5 464 L658.5 460 L665 456.5 L677 445.5 L728 455.5 L788.5 456 L785.5 463 L774 474.5 L759 483.5 L747 486.5 Z M726 518.5 L703 518.5 L676 510.5 L647 495.5 L634.5 485 L646 480.5 L658 472.5 L662 472.5 L683 482.5 L713 491.5 L761.5 498 L760.5 501 L750 509.5 L740 514.5 L726 518.5 Z M689 547.5 L684 547.5 L656 537.5 L630 519.5 L614.5 504 L636 493.5 L654 505.5 L683 519.5 L729.5 532 L726 536.5 L709 545.5 L689 547.5 Z M563 528.5 L558 528.5 L548 523.5 L536.5 511 L543 508.5 L548 502.5 L577.5 522 L571 527.5 L563 528.5 Z M578 605.5 L562 605.5 L550 599.5 L542.5 592 L538.5 587 L531.5 570 L527.5 551 L533.5 547 L534 543.5 L549 545.5 L557 542.5 L561.5 538 L560 533.5 L571 533.5 L579 530.5 L584.5 525 L585 519.5 L598 517.5 L609 508.5 L655 543.5 L696.5 561 L683 569.5 L675 571.5 L652 570.5 L631 559.5 L603 532.5 L600.5 535 L602.5 539 L623 560.5 L642 574.5 L655 580.5 L658.5 584 L649 589.5 L643 590.5 L623 589.5 L620 586.5 L615 585.5 L604 576.5 L582 549.5 L579.5 553 L592.5 574 L612 593.5 L621.5 600 L613 603.5 L598 603.5 L583 597.5 L575 589.5 L568 589.5 L569.5 594 L578.5 603 L578 605.5 Z M516 547.5 L501 536.5 L495.5 527 L494.5 520 L499 518.5 L504 511.5 L507.5 512 L515.5 530 L527.5 543 L525 546.5 L516 547.5 Z M497 546.5 L490 546.5 L482 541.5 L478.5 538 L472.5 526 L473.5 519 L478 517.5 L481 513.5 L489.5 518 L491.5 531 L497.5 543 L497 546.5 Z M822 817.5 L822.5 806 L820.5 798 L811 788.5 L801 785.5 L781 786.5 L753 798.5 L736 798.5 L734.5 800 L740.5 805 L730 807.5 L707 806.5 L692 800.5 L678.5 788 L671 773.5 L666.5 783 L661 788.5 L662.5 772 L656.5 756 L655.5 743 L654 741.5 L651.5 745 L652 768.5 L640.5 755 L636.5 743 L636.5 719 L641.5 702 L641.5 691 L640 689.5 L638.5 691 L636.5 698 L628 706.5 L614 707.5 L612.5 706 L623.5 698 L627.5 690 L623.5 674 L614.5 666 L614.5 645 L632 638.5 L647 638.5 L659 641.5 L674 649.5 L687.5 663 L702.5 690 L712 700.5 L722 705.5 L738.5 705 L736 708.5 L728 711.5 L712 711.5 L704 707.5 L701.5 709 L707.5 718 L719 728.5 L733 733.5 L744.5 733 L732 739.5 L717 739.5 L711 736.5 L709.5 739 L728 756.5 L743 761.5 L761 759.5 L777.5 752 L766 766.5 L756 771.5 L750 772.5 L748.5 774 L750 775.5 L782 767.5 L798 767.5 L817 775.5 L825.5 784 L830.5 796 L829.5 808 L822 817.5 Z" fill="#FFFFFF" fill-rule="evenodd"/>
</svg>
